<svg width="22" height="23" viewBox="0 0 22 23" fill="none" xmlns="http://www.w3.org/2000/svg">
<g clip-path="url(#clip0_5_230)">
<path d="M0 2.07575C0 1.20538 0.72325 0.5 1.61562 0.5H20.3844C21.2768 0.5 22 1.20538 22 2.07575V20.9242C22 21.7946 21.2768 22.5 20.3844 22.5H1.61562C0.72325 22.5 0 21.7946 0 20.9242V2.07575ZM6.79662 18.9167V8.98238H3.49525V18.9167H6.79662ZM5.14663 7.62525C6.2975 7.62525 7.01388 6.8635 7.01388 5.90925C6.99325 4.93437 6.29888 4.19325 5.16862 4.19325C4.03837 4.19325 3.3 4.93575 3.3 5.90925C3.3 6.8635 4.01638 7.62525 5.12463 7.62525H5.14663ZM11.8951 18.9167V13.3686C11.8951 13.0716 11.9171 12.7746 12.0051 12.5629C12.243 11.9703 12.7861 11.3556 13.6991 11.3556C14.894 11.3556 15.3711 12.2659 15.3711 13.6024V18.9167H18.6725V13.2188C18.6725 10.1663 17.0445 8.74725 14.872 8.74725C13.1202 8.74725 12.3351 9.70975 11.8951 10.3876V10.422H11.8731C11.8804 10.4105 11.8878 10.3991 11.8951 10.3876V8.98238H8.59513C8.63637 9.91463 8.59513 18.9167 8.59513 18.9167H11.8951Z" fill="#003554"/>
</g>
<defs>
<clipPath id="clip0_5_230">
<rect width="22" height="22" fill="white" transform="translate(0 0.5)"/>
</clipPath>
</defs>
</svg>
