<svg width="22" height="23" viewBox="0 0 22 23" fill="none" xmlns="http://www.w3.org/2000/svg">
<g clip-path="url(#clip0_5_225)">
<path fill-rule="evenodd" clip-rule="evenodd" d="M11 2.33334C13.188 2.33334 15.2865 3.20254 16.8336 4.74971C18.3808 6.29689 19.25 8.39531 19.25 10.5833C19.25 13.4012 17.7137 15.7075 16.0948 17.3621C15.2859 18.1797 14.4034 18.921 13.4585 19.5768L13.068 19.8426L12.8847 19.9645L12.5391 20.1845L12.2311 20.3724L11.8498 20.5943C11.5908 20.7416 11.298 20.8192 11 20.8192C10.702 20.8192 10.4092 20.7416 10.1502 20.5943L9.76892 20.3724L9.29225 20.0791L9.11625 19.9645L8.74042 19.7143C7.72106 19.0243 6.77148 18.2365 5.90517 17.3621C4.28633 15.7057 2.75 13.4012 2.75 10.5833C2.75 8.39531 3.61919 6.29689 5.16637 4.74971C6.71354 3.20254 8.81196 2.33334 11 2.33334ZM11 4.16668C9.29819 4.16668 7.66609 4.84272 6.46273 6.04607C5.25937 7.24943 4.58333 8.88154 4.58333 10.5833C4.58333 12.7118 5.74933 14.58 7.21508 16.0797C7.8454 16.7176 8.5266 17.3031 9.25192 17.8305L9.67175 18.1293C9.80742 18.2238 9.93758 18.3118 10.0632 18.3933L10.4207 18.6225L10.7351 18.8141L11 18.969L11.4171 18.7224L11.7535 18.5116C11.9323 18.3979 12.1248 18.2705 12.3283 18.1293L12.7481 17.8305C13.4734 17.3031 14.1546 16.7176 14.7849 16.0797C16.2507 14.5809 17.4167 12.7118 17.4167 10.5833C17.4167 8.88154 16.7406 7.24943 15.5373 6.04607C14.3339 4.84272 12.7018 4.16668 11 4.16668ZM11 6.91668C11.9725 6.91668 12.9051 7.30298 13.5927 7.99062C14.2804 8.67825 14.6667 9.61088 14.6667 10.5833C14.6667 11.5558 14.2804 12.4884 13.5927 13.1761C12.9051 13.8637 11.9725 14.25 11 14.25C10.0275 14.25 9.09491 13.8637 8.40728 13.1761C7.71964 12.4884 7.33333 11.5558 7.33333 10.5833C7.33333 9.61088 7.71964 8.67825 8.40728 7.99062C9.09491 7.30298 10.0275 6.91668 11 6.91668ZM11 8.75001C10.5138 8.75001 10.0475 8.94316 9.70364 9.28698C9.35982 9.6308 9.16667 10.0971 9.16667 10.5833C9.16667 11.0696 9.35982 11.5359 9.70364 11.8797C10.0475 12.2235 10.5138 12.4167 11 12.4167C11.4862 12.4167 11.9525 12.2235 12.2964 11.8797C12.6402 11.5359 12.8333 11.0696 12.8333 10.5833C12.8333 10.0971 12.6402 9.6308 12.2964 9.28698C11.9525 8.94316 11.4862 8.75001 11 8.75001Z" fill="#003554"/>
</g>
<defs>
<clipPath id="clip0_5_225">
<rect width="22" height="22" fill="white" transform="translate(0 0.5)"/>
</clipPath>
</defs>
</svg>
