<svg width="71" height="70" viewBox="0 0 71 70" fill="none" xmlns="http://www.w3.org/2000/svg">
<g id="ri:github-fill">
<path id="Vector" d="M35.5028 5.8125C19.4458 5.8125 6.44031 18.818 6.44031 34.875C6.43681 40.9757 8.35436 46.9225 11.9209 51.8721C15.4875 56.8216 20.5221 60.5224 26.3103 62.4495C27.7635 62.7023 28.3098 61.8305 28.3098 61.0661C28.3098 60.3773 28.2721 58.0901 28.2721 55.6547C20.9716 57.0003 19.0825 53.8761 18.5012 52.2398C18.1728 51.4028 16.7575 48.825 15.5223 48.1333C14.5052 47.5898 13.052 46.2442 15.4846 46.2094C17.7747 46.1716 19.408 48.3164 19.9544 49.1883C22.57 53.5825 26.7463 52.3474 28.4174 51.5859C28.6731 49.6969 29.4346 48.4268 30.2716 47.7003C23.8052 46.9737 17.0481 44.4656 17.0481 33.3492C17.0481 30.1872 18.1728 27.5745 20.027 25.5372C19.7364 24.8107 18.7192 21.8318 20.3177 17.8357C20.3177 17.8357 22.7502 17.0742 28.3098 20.8175C30.6757 20.1608 33.1202 19.8303 35.5755 19.8352C38.0458 19.8352 40.5161 20.1607 42.8411 20.8146C48.4007 17.0364 50.8333 17.8386 50.8333 17.8386C52.4317 21.8347 51.4145 24.8136 51.1239 25.5401C52.9752 27.5745 54.1028 30.1523 54.1028 33.3492C54.1028 44.5034 47.3109 46.9737 40.8416 47.7003C41.8966 48.607 42.8062 50.3508 42.8062 53.0768C42.8062 56.9625 42.7684 60.0867 42.7684 61.069C42.7684 61.8305 43.3148 62.7372 44.7679 62.4466C50.5364 60.4983 55.5487 56.7903 59.0996 51.8444C62.6504 46.8984 64.561 40.9636 64.5624 34.875C64.5624 18.818 51.5569 5.8125 35.4999 5.8125H35.5028Z" fill="white"/>
</g>
</svg>
